<?xml version="1.0" encoding="UTF-8"?>
<svg id="Ebene_1" data-name="Ebene 1" xmlns="http://www.w3.org/2000/svg" viewBox="0 0 512 512">
  <defs>
    <style>
      .cls-1 {
        fill: #2a2a2a;
      }

      .cls-2 {
        fill: #2e2b2b;
      }

      .cls-3 {
        fill: #4d4d4d;
      }

      .cls-4 {
        fill: #fff;
      }
    </style>
  </defs>
  <rect class="cls-1" width="512" height="512" rx="100" ry="100"/>
  <g>
    <g>
      <path class="cls-4" d="M473.75,256c0-26.4-18.8-50.61-50.07-69.46,8.78-35.44,4.96-65.85-13.71-84.51-12.36-12.36-29.86-18.21-50.55-18.21-10.57,0-21.98,1.55-33.95,4.51-18.85-31.27-43.06-50.08-69.46-50.08s-50.61,18.8-69.46,50.08c-11.98-2.97-23.39-4.51-33.95-4.51-20.69,0-38.2,5.86-50.55,18.21-18.67,18.67-22.49,49.08-13.71,84.51-31.27,18.85-50.07,43.05-50.07,69.46s18.8,50.61,50.07,69.46c-8.78,35.44-4.96,65.85,13.71,84.51,12.36,12.36,29.86,18.21,50.55,18.21,10.57,0,21.98-1.55,33.95-4.51,18.85,31.27,43.06,50.08,69.46,50.08s50.61-18.8,69.46-50.08c11.98,2.97,23.38,4.51,33.95,4.51,20.69,0,38.2-5.86,50.55-18.21,18.67-18.67,22.49-49.08,13.71-84.51,31.27-18.85,50.07-43.05,50.07-69.46ZM359.42,88.35h0c20.21,0,36.14,5.68,47.34,16.88,9.61,9.61,15.18,22.81,16.55,39.24,1,11.99-.25,25.29-3.72,39.69-18.48-10.51-40.94-19.22-66.21-25.55-6.33-25.26-15.04-47.72-25.55-66.2,11.14-2.67,21.74-4.06,31.57-4.06ZM360.34,256c0,14.39-.7,28.57-2.07,42.36-8.79,10.72-18.32,21.24-28.49,31.42s-20.69,19.67-31.48,28.5c-13.78,1.36-27.93,2.06-42.3,2.06s-28.52-.7-42.3-2.06c-10.79-8.83-21.34-18.36-31.48-28.5-10.18-10.18-19.7-20.69-28.49-31.42-1.37-13.8-2.07-27.97-2.07-42.36s.7-28.57,2.07-42.36c8.79-10.72,18.32-21.24,28.49-31.42,10.14-10.14,20.69-19.67,31.48-28.5,13.78-1.36,27.93-2.06,42.3-2.06s28.52.7,42.3,2.06c10.79,8.83,21.34,18.36,31.48,28.5,10.18,10.18,19.7,20.69,28.49,31.42,1.37,13.8,2.07,27.97,2.07,42.36ZM332.99,179.01c-8.67-8.67-17.54-16.8-26.51-24.39,14.96,1.79,29.43,4.37,43.2,7.7,3.33,13.77,5.91,28.23,7.7,43.19-7.59-8.97-15.72-17.83-24.39-26.49ZM300.14,149.37c-13.16-10.7-26.49-20.2-39.76-28.42,4.86-2.87,9.73-5.59,14.6-8.13,16.74-8.71,33-15.17,48.31-19.26,1.93,3.35,3.81,6.85,5.63,10.5,7.95,15.91,14.5,33.89,19.52,53.35-15.22-3.57-31.4-6.3-48.3-8.04ZM291.92,148.61c-11.69-.97-23.68-1.48-35.92-1.48s-24.23.51-35.92,1.48c11.78-9.25,23.81-17.65,35.92-25.04,12.11,7.39,24.14,15.79,35.92,25.04ZM211.86,149.37c-16.9,1.74-33.08,4.46-48.3,8.04,5.02-19.45,11.57-37.44,19.52-53.35,1.82-3.65,3.7-7.15,5.64-10.5,15.3,4.09,31.57,10.55,48.31,19.26,4.87,2.53,9.73,5.26,14.6,8.13-13.27,8.22-26.6,17.72-39.76,28.42ZM205.52,154.62c-8.97,7.59-17.84,15.72-26.51,24.39s-16.8,17.53-24.39,26.49c1.79-14.95,4.37-29.42,7.7-43.19,13.77-3.33,28.24-5.91,43.2-7.7ZM149.37,211.83c-10.71,13.18-20.22,26.54-28.46,39.82-10.2-17.31-18.3-34.65-23.92-51.52-1.29-3.87-2.44-7.68-3.44-11.42,3.35-1.93,6.85-3.81,10.51-5.64,15.91-7.95,33.89-14.5,53.35-19.52-3.57,15.22-6.3,31.39-8.04,48.28ZM148.61,220.02c-.97,11.71-1.49,23.72-1.49,35.98s.51,24.27,1.49,35.98c-9.31-11.84-17.71-23.89-25.09-35.98,7.38-12.09,15.78-24.14,25.09-35.98ZM149.37,300.17c1.74,16.89,4.46,33.06,8.04,48.28-19.45-5.02-37.44-11.57-53.35-19.52-3.65-1.83-7.16-3.71-10.51-5.64,1-3.74,2.15-7.54,3.44-11.42,5.62-16.87,13.72-34.22,23.92-51.52,8.23,13.29,17.74,26.65,28.46,39.82ZM154.63,306.49c7.59,8.97,15.72,17.83,24.39,26.49,8.67,8.67,17.54,16.8,26.51,24.39-14.96-1.79-29.43-4.37-43.2-7.7-3.33-13.77-5.91-28.23-7.7-43.19ZM211.86,362.63c13.16,10.7,26.49,20.2,39.76,28.42-4.86,2.87-9.73,5.59-14.6,8.13-16.74,8.71-33,15.17-48.31,19.26-1.93-3.35-3.81-6.85-5.63-10.5-7.95-15.91-14.5-33.89-19.52-53.35,15.22,3.57,31.4,6.3,48.3,8.04ZM220.08,363.39c11.69.97,23.68,1.48,35.92,1.48s24.23-.51,35.92-1.48c-11.78,9.25-23.81,17.65-35.92,25.04-12.11-7.39-24.14-15.79-35.92-25.04ZM300.14,362.63c16.9-1.74,33.08-4.46,48.3-8.04-5.02,19.45-11.57,37.44-19.52,53.35-1.82,3.65-3.7,7.15-5.63,10.5-15.3-4.09-31.57-10.55-48.31-19.26-4.87-2.53-9.74-5.26-14.6-8.13,13.27-8.22,26.6-17.72,39.76-28.42ZM306.48,357.38c8.97-7.59,17.84-15.72,26.51-24.39s16.8-17.53,24.39-26.49c-1.79,14.95-4.37,29.42-7.7,43.19-13.77,3.33-28.24,5.91-43.2,7.7ZM362.63,300.17c10.71-13.18,20.22-26.54,28.46-39.82,10.2,17.31,18.3,34.65,23.92,51.52,1.29,3.87,2.44,7.68,3.44,11.42-3.35,1.93-6.85,3.81-10.51,5.64-15.91,7.95-33.89,14.5-53.35,19.52,3.57-15.22,6.3-31.39,8.04-48.28ZM363.39,291.98c.97-11.71,1.49-23.72,1.49-35.98s-.51-24.27-1.49-35.98c9.31,11.84,17.71,23.89,25.09,35.98-7.38,12.09-15.78,24.14-25.09,35.98ZM362.63,211.83c-1.74-16.89-4.46-33.06-8.04-48.28,19.45,5.02,37.44,11.57,53.35,19.52,3.65,1.83,7.16,3.71,10.51,5.64-1,3.74-2.15,7.54-3.44,11.42-5.62,16.87-13.72,34.22-23.92,51.52-8.23-13.29-17.74-26.65-28.46-39.82ZM216.55,58.83c12.58-10.64,25.85-16.04,39.45-16.04s26.87,5.4,39.45,16.04c9.19,7.77,17.71,18.07,25.44,30.7-20.5,5.63-42.54,15.34-64.89,28.73-22.35-13.4-44.39-23.1-64.89-28.74,7.73-12.63,16.25-22.93,25.44-30.7ZM88.68,144.47c1.37-16.42,6.94-29.62,16.55-39.24,11.2-11.2,27.13-16.88,47.35-16.88h0c9.82,0,20.42,1.39,31.56,4.05-10.51,18.47-19.22,40.93-25.55,66.2-25.27,6.33-47.73,15.04-66.21,25.55-3.46-14.4-4.72-27.7-3.72-39.69ZM58.83,295.45c-10.64-12.58-16.04-25.85-16.04-39.45s5.4-26.87,16.04-39.45c7.77-9.18,18.06-17.7,30.69-25.43,5.63,20.5,15.35,42.54,28.75,64.88-13.39,22.34-23.11,44.39-28.75,64.88-12.63-7.73-22.92-16.25-30.69-25.43ZM152.58,423.65c-20.21,0-36.14-5.68-47.35-16.88-9.61-9.61-15.18-22.81-16.55-39.24-1-11.99.25-25.29,3.72-39.69,18.48,10.51,40.94,19.22,66.21,25.55,6.33,25.26,15.04,47.72,25.55,66.2-11.14,2.67-21.74,4.06-31.57,4.06ZM295.45,453.17c-12.58,10.64-25.85,16.04-39.45,16.04s-26.87-5.4-39.45-16.04c-9.19-7.77-17.71-18.07-25.44-30.7,20.5-5.63,42.54-15.34,64.89-28.73,22.35,13.39,44.39,23.1,64.89,28.74-7.73,12.63-16.25,22.93-25.44,30.7ZM423.32,367.53c-1.37,16.42-6.94,29.62-16.55,39.24-11.2,11.2-27.13,16.88-47.35,16.88-9.83,0-20.43-1.39-31.57-4.06,10.51-18.47,19.22-40.93,25.55-66.2,25.27-6.33,47.73-15.04,66.21-25.55,3.46,14.4,4.72,27.7,3.72,39.69ZM422.48,320.88c-5.63-20.5-15.35-42.54-28.75-64.88,13.39-22.34,23.11-44.39,28.75-64.88,12.63,7.73,22.92,16.25,30.69,25.43,10.64,12.58,16.04,25.85,16.04,39.45s-5.4,26.87-16.04,39.45c-7.77,9.18-18.06,17.7-30.69,25.43Z"/>
      <path class="cls-4" d="M256,478c-26.16,0-51.46-17.54-71.47-49.48-11.31,2.6-22.04,3.91-31.94,3.91-22.31,0-40.83-6.73-53.56-19.46-18.5-18.5-23.98-48.78-15.56-85.51-31.93-20.02-49.47-45.31-49.47-71.47s17.54-51.45,49.47-71.47c-8.42-36.73-2.94-67.02,15.56-85.51,12.73-12.73,31.25-19.45,53.56-19.46h0c9.9,0,20.63,1.32,31.94,3.91,20.02-31.94,45.31-49.48,71.47-49.48s51.46,17.54,71.47,49.48c11.31-2.6,22.04-3.91,31.94-3.91,22.31,0,40.83,6.73,53.56,19.46,18.5,18.5,23.98,48.78,15.56,85.51,31.93,20.02,49.47,45.31,49.47,71.47s-17.54,51.45-49.47,71.47c8.42,36.73,2.94,67.02-15.56,85.51-12.73,12.73-31.25,19.46-53.56,19.46-9.9,0-20.64-1.32-31.94-3.91-20.02,31.94-45.31,49.48-71.47,49.48ZM197.74,424.98c6.68,10.11,13.92,18.49,21.56,24.95,11.79,9.98,24.14,15.03,36.7,15.03s24.91-5.06,36.7-15.03c7.64-6.46,14.88-14.84,21.56-24.95-18.79-5.73-38.34-14.55-58.26-26.29-19.91,11.74-39.47,20.56-58.26,26.29ZM334.31,416.67c8.89,1.81,17.31,2.73,25.11,2.73,19.04,0,33.96-5.26,44.34-15.64,8.88-8.88,14.04-21.19,15.32-36.58h0c.83-9.97.02-21-2.4-32.87-17.31,9.22-37.39,16.81-59.79,22.59-5.78,22.4-13.37,42.46-22.58,59.77ZM95.32,334.3c-2.42,11.87-3.23,22.9-2.4,32.87,1.28,15.39,6.44,27.7,15.32,36.58,10.38,10.38,25.29,15.64,44.34,15.64,7.79,0,16.22-.92,25.11-2.73-9.22-17.31-16.8-37.38-22.58-59.77-22.4-5.79-42.47-13.37-59.79-22.59ZM268.6,390.88c2.86,1.61,5.66,3.13,8.35,4.53,15.21,7.92,30.09,13.98,44.27,18.04,1.33-2.4,2.63-4.88,3.9-7.41,6.84-13.68,12.67-29.04,17.38-45.75-13.12,2.81-26.76,4.97-40.66,6.45-10.87,8.78-22.02,16.88-33.24,24.15ZM169.49,360.29c4.71,16.71,10.54,32.08,17.38,45.75,1.27,2.53,2.57,5.01,3.9,7.41,14.18-4.07,29.06-10.13,44.28-18.05,2.7-1.4,5.49-2.92,8.35-4.53-11.22-7.27-22.37-15.37-33.24-24.15-13.91-1.47-27.55-3.64-40.67-6.45ZM233.98,368.57c7.3,5.32,14.66,10.29,22.02,14.86,7.36-4.57,14.73-9.54,22.02-14.86-14.66.73-29.39.73-44.05,0ZM215.4,354.17c26.56,2.54,54.63,2.54,81.19,0,10.43-8.59,20.58-17.8,30.17-27.4,9.68-9.68,18.89-19.8,27.39-30.11,1.28-13.3,1.92-26.97,1.92-40.66s-.65-27.36-1.92-40.66c-8.5-10.31-17.72-20.43-27.39-30.11-9.59-9.59-19.74-18.81-30.17-27.4-26.56-2.54-54.64-2.54-81.19,0-10.43,8.59-20.58,17.8-30.17,27.4-9.68,9.68-18.89,19.8-27.39,30.11-1.28,13.3-1.92,26.97-1.92,40.66s.65,27.36,1.92,40.66c8.5,10.31,17.72,20.43,27.39,30.11,9.59,9.59,19.74,18.81,30.17,27.4ZM165.85,346.15c8.47,1.98,17.23,3.68,26.18,5.08-5.48-4.95-10.84-10.05-16.03-15.23s-10.29-10.55-15.23-16.02c1.4,8.95,3.1,17.7,5.08,26.17ZM351.22,319.98c-4.94,5.46-10.03,10.82-15.23,16.02s-10.54,10.28-16.03,15.23c8.95-1.4,17.71-3.1,26.18-5.08,1.98-8.47,3.68-17.22,5.08-26.17ZM366.73,301.87c-1.47,13.9-3.64,27.53-6.44,40.64,16.71-4.71,32.08-10.54,45.75-17.38,2.53-1.27,5.02-2.57,7.42-3.9-.76-2.64-1.59-5.32-2.49-8.01-4.84-14.51-11.57-29.5-20.06-44.64-7.29,11.26-15.4,22.42-24.18,33.29ZM98.54,321.22c2.4,1.33,4.89,2.64,7.42,3.9,13.68,6.84,29.04,12.67,45.75,17.38-2.81-13.11-4.97-26.75-6.44-40.64-8.78-10.87-16.89-22.04-24.18-33.29-8.49,15.15-15.23,30.14-20.06,44.64-.9,2.69-1.73,5.37-2.49,8.01ZM62.07,292.7c6.46,7.64,14.83,14.87,24.94,21.55,5.72-18.76,14.55-38.32,26.3-58.25-11.75-19.93-20.58-39.49-26.3-58.25-10.1,6.68-18.48,13.91-24.94,21.55-9.97,11.79-15.03,24.14-15.03,36.7s5.06,24.91,15.03,36.7ZM398.68,256c11.75,19.93,20.58,39.49,26.3,58.25,10.1-6.68,18.48-13.91,24.94-21.55,9.98-11.79,15.03-24.14,15.03-36.7s-5.06-24.91-15.03-36.7c-6.46-7.64-14.83-14.87-24.94-21.55-5.72,18.76-14.55,38.32-26.3,58.25ZM368.57,233.9c.37,7.36.55,14.75.55,22.1s-.19,14.74-.55,22.1c5.33-7.32,10.32-14.71,14.91-22.1-4.59-7.39-9.58-14.78-14.91-22.1ZM128.52,256c4.59,7.39,9.58,14.78,14.91,22.1-.37-7.35-.55-14.74-.55-22.1s.19-14.74.55-22.1c-5.34,7.32-10.32,14.71-14.91,22.1ZM366.73,210.13c8.78,10.87,16.89,22.04,24.18,33.29,8.49-15.15,15.23-30.14,20.06-44.64.89-2.68,1.73-5.36,2.49-8.01-2.4-1.33-4.89-2.64-7.42-3.9-13.68-6.84-29.04-12.67-45.75-17.38,2.81,13.11,4.97,26.74,6.44,40.64ZM98.54,190.78c.76,2.64,1.59,5.32,2.49,8.01,4.83,14.51,11.57,29.5,20.06,44.64,7.29-11.26,15.4-22.43,24.18-33.29,1.47-13.89,3.64-27.53,6.44-40.64-16.71,4.71-32.08,10.54-45.75,17.38-2.53,1.26-5.01,2.57-7.42,3.9ZM165.85,165.85c-1.98,8.47-3.68,17.22-5.08,26.17,4.94-5.46,10.03-10.82,15.23-16.02,5.18-5.18,10.54-10.28,16.03-15.23-8.95,1.4-17.71,3.1-26.18,5.08ZM319.97,160.78c5.48,4.95,10.84,10.05,16.02,15.23,5.2,5.2,10.29,10.56,15.23,16.02-1.4-8.95-3.1-17.7-5.08-26.17-8.47-1.98-17.23-3.68-26.18-5.08ZM356.89,155.11c22.4,5.79,42.47,13.37,59.79,22.59,2.42-11.87,3.23-22.9,2.4-32.87-1.29-15.39-6.44-27.7-15.32-36.58-10.38-10.38-25.29-15.64-44.34-15.64h0c-7.79,0-16.22.92-25.11,2.73,9.22,17.31,16.8,37.38,22.58,59.77ZM92.92,144.83c-.83,9.97-.03,21.01,2.4,32.87,17.32-9.22,37.39-16.81,59.79-22.59,5.78-22.39,13.37-42.46,22.58-59.78-8.89-1.81-17.31-2.72-25.1-2.72-19.05,0-33.97,5.26-44.35,15.64-8.88,8.88-14.04,21.19-15.32,36.58h0ZM190.78,98.55c-1.33,2.4-2.63,4.88-3.9,7.41-6.84,13.68-12.67,29.04-17.38,45.75,13.12-2.81,26.76-4.97,40.67-6.45,10.87-8.78,22.02-16.88,33.24-24.15-2.86-1.61-5.65-3.12-8.34-4.52-15.22-7.92-30.1-13.98-44.28-18.05ZM301.84,145.27c13.9,1.48,27.54,3.64,40.66,6.45-4.71-16.71-10.54-32.08-17.38-45.75-1.26-2.53-2.57-5.01-3.9-7.41-14.18,4.06-29.06,10.13-44.28,18.05-2.69,1.4-5.48,2.91-8.35,4.53,11.22,7.27,22.37,15.37,33.24,24.15ZM256,142.87c7.33,0,14.69.18,22.02.55-7.3-5.32-14.66-10.29-22.02-14.86-7.36,4.57-14.73,9.54-22.02,14.86,7.33-.37,14.7-.55,22.02-.55ZM197.74,87.02c18.78,5.73,38.34,14.55,58.26,26.29,19.91-11.74,39.47-20.56,58.26-26.29-6.68-10.11-13.92-18.49-21.56-24.95-11.79-9.97-24.14-15.03-36.7-15.03s-24.91,5.06-36.7,15.03c-7.64,6.46-14.87,14.84-21.55,24.95Z"/>
    </g>
    <g>
      <g>
        <circle class="cls-3" cx="324.35" cy="420.99" r="10.84"/>
        <polygon class="cls-2" points="326.46 418.88 332.15 420.99 326.46 423.09 324.35 428.79 322.24 423.09 316.54 420.99 322.24 418.88 324.35 413.18 326.46 418.88"/>
      </g>
      <g>
        <circle class="cls-3" cx="420.83" cy="324.28" r="10.84"/>
        <polygon class="cls-2" points="422.94 322.17 428.64 324.28 422.94 326.38 420.83 332.08 418.73 326.38 413.03 324.28 418.73 322.17 420.83 316.47 422.94 322.17"/>
      </g>
      <g>
        <circle class="cls-3" cx="187.65" cy="91.01" r="10.84"/>
        <polygon class="cls-2" points="189.76 88.9 195.46 91.01 189.76 93.12 187.65 98.82 185.54 93.12 179.85 91.01 185.54 88.9 187.65 83.21 189.76 88.9"/>
      </g>
      <g>
        <circle class="cls-3" cx="324.35" cy="91.01" r="10.84"/>
        <polygon class="cls-2" points="326.46 88.91 332.15 91.01 326.46 93.12 324.35 98.82 322.24 93.12 316.54 91.01 322.24 88.91 324.35 83.21 326.46 88.91"/>
      </g>
      <g>
        <circle class="cls-3" cx="91.17" cy="324.28" r="10.84"/>
        <polygon class="cls-2" points="93.27 322.17 98.97 324.28 93.27 326.38 91.17 332.08 89.06 326.38 83.36 324.28 89.06 322.17 91.17 316.47 93.27 322.17"/>
      </g>
      <g>
        <circle class="cls-3" cx="91.17" cy="187.72" r="10.84"/>
        <polygon class="cls-2" points="93.27 185.62 98.97 187.72 93.27 189.83 91.17 195.53 89.06 189.83 83.36 187.72 89.06 185.62 91.17 179.92 93.27 185.62"/>
      </g>
      <g>
        <circle class="cls-3" cx="420.83" cy="187.72" r="10.84"/>
        <polygon class="cls-2" points="422.94 185.62 428.64 187.72 422.94 189.83 420.83 195.53 418.73 189.83 413.03 187.72 418.73 185.62 420.83 179.92 422.94 185.62"/>
      </g>
      <g>
        <circle class="cls-3" cx="187.65" cy="420.99" r="10.84"/>
        <polygon class="cls-2" points="189.76 418.88 195.46 420.99 189.76 423.09 187.65 428.79 185.54 423.09 179.85 420.99 185.54 418.88 187.65 413.18 189.76 418.88"/>
      </g>
    </g>
  </g>
</svg>