<?xml version="1.0" encoding="UTF-8"?>
<svg id="Ebene_1" data-name="Ebene 1" xmlns="http://www.w3.org/2000/svg" viewBox="0 0 512 512">
  <defs>
    <style>
      .cls-1 {
        fill: #2e2b2b;
      }

      .cls-2 {
        fill: #4d4d4d;
      }

      .cls-3 {
        fill: #fff;
      }
    </style>
  </defs>
  <g>
    <path class="cls-3" d="M507.1,256c0-30.45-21.68-58.36-57.73-80.09,10.12-40.86,5.72-75.93-15.81-97.46-14.25-14.25-34.43-21-58.3-21-12.19,0-25.34,1.78-39.15,5.2-21.74-36.06-49.65-57.75-80.1-57.75s-58.36,21.68-80.1,57.75c-13.81-3.42-26.97-5.2-39.15-5.2-23.86,0-44.05,6.75-58.3,21-21.53,21.53-25.94,56.59-15.81,97.46-36.05,21.74-57.73,49.65-57.73,80.09s21.68,58.36,57.73,80.09c-10.12,40.86-5.72,75.93,15.81,97.46,14.25,14.25,34.43,21,58.3,21,12.19,0,25.34-1.78,39.15-5.2,21.74,36.06,49.65,57.75,80.1,57.75s58.36-21.68,80.1-57.75c13.81,3.42,26.97,5.2,39.15,5.2,23.86,0,44.05-6.75,58.3-21,21.53-21.53,25.94-56.59,15.81-97.46,36.05-21.74,57.73-49.65,57.73-80.09ZM375.26,62.68h0c23.31,0,41.68,6.55,54.59,19.47,11.09,11.09,17.51,26.31,19.09,45.24,1.15,13.82-.29,29.16-4.29,45.76-21.31-12.12-47.21-22.17-76.35-29.47-7.3-29.13-17.34-55.03-29.46-76.33,12.85-3.08,25.07-4.68,36.41-4.68ZM376.32,256c0,16.6-.81,32.94-2.38,48.85-10.13,12.36-21.12,24.49-32.86,36.23s-23.86,22.68-36.3,32.86c-15.88,1.57-32.2,2.38-48.77,2.38s-32.89-.8-48.77-2.38c-12.45-10.19-24.61-21.17-36.3-32.86-11.74-11.74-22.72-23.86-32.86-36.23-1.58-15.91-2.38-32.25-2.38-48.85s.81-32.94,2.38-48.85c10.13-12.36,21.12-24.49,32.86-36.23s23.86-22.68,36.3-32.86c15.88-1.57,32.2-2.38,48.77-2.38s32.89.8,48.77,2.38c12.45,10.19,24.61,21.17,36.3,32.86s22.72,23.86,32.86,36.23c1.58,15.91,2.38,32.25,2.38,48.85ZM344.78,167.22c-10-10-20.22-19.37-30.57-28.13,17.25,2.06,33.93,5.04,49.82,8.88,3.84,15.88,6.82,32.56,8.88,49.8-8.75-10.34-18.13-20.56-28.12-30.55ZM306.91,133.04c-15.17-12.34-30.55-23.29-45.85-32.77,5.61-3.31,11.22-6.45,16.83-9.37,19.3-10.04,38.06-17.49,55.71-22.21,2.23,3.86,4.39,7.9,6.5,12.1,9.17,18.34,16.72,39.09,22.51,61.52-17.55-4.12-36.21-7.26-55.7-9.27ZM297.42,132.16c-13.48-1.12-27.31-1.71-41.42-1.71s-27.95.59-41.42,1.71c13.58-10.67,27.46-20.35,41.42-28.87,13.96,8.53,27.84,18.21,41.42,28.87ZM205.1,133.04c-19.49,2.01-38.15,5.15-55.7,9.27,5.79-22.43,13.34-43.18,22.51-61.52,2.1-4.21,4.27-8.24,6.5-12.11,17.65,4.72,36.41,12.17,55.71,22.21,5.61,2.92,11.23,6.06,16.83,9.37-15.3,9.48-30.68,20.44-45.85,32.77ZM197.79,139.1c-10.34,8.75-20.57,18.13-30.57,28.13s-19.37,20.21-28.13,30.55c2.06-17.24,5.03-33.92,8.88-49.8,15.88-3.84,32.57-6.82,49.82-8.88ZM133.04,205.07c-12.36,15.19-23.32,30.6-32.81,45.92-11.77-19.96-21.1-39.96-27.58-59.42-1.49-4.47-2.81-8.86-3.97-13.17,3.86-2.23,7.9-4.4,12.12-6.5,18.34-9.17,39.09-16.72,61.52-22.51-4.12,17.55-7.26,36.19-9.27,55.67ZM132.17,214.51c-1.12,13.5-1.72,27.36-1.72,41.49s.59,27.99,1.72,41.49c-10.74-13.65-20.43-27.55-28.94-41.49,8.51-13.94,18.2-27.84,28.94-41.49ZM133.04,306.93c2.01,19.48,5.15,38.13,9.27,55.67-22.43-5.79-43.18-13.34-61.52-22.51-4.21-2.11-8.25-4.27-12.12-6.5,1.16-4.31,2.48-8.7,3.97-13.17,6.49-19.46,15.82-39.46,27.58-59.42,9.49,15.32,20.46,30.73,32.81,45.92ZM139.1,314.22c8.75,10.34,18.13,20.56,28.12,30.55s20.22,19.37,30.57,28.13c-17.25-2.06-33.93-5.04-49.82-8.88-3.84-15.88-6.82-32.56-8.88-49.8ZM205.1,378.96c15.17,12.34,30.55,23.29,45.85,32.77-5.61,3.31-11.22,6.45-16.84,9.37-19.3,10.04-38.06,17.49-55.71,22.21-2.23-3.86-4.39-7.9-6.5-12.1-9.17-18.34-16.72-39.09-22.51-61.52,17.55,4.12,36.21,7.26,55.7,9.27ZM214.58,379.84c13.48,1.12,27.31,1.71,41.42,1.71s27.95-.59,41.42-1.71c-13.58,10.67-27.46,20.35-41.42,28.87-13.96-8.53-27.84-18.21-41.42-28.87ZM306.9,378.96c19.49-2.01,38.15-5.15,55.7-9.27-5.79,22.43-13.34,43.18-22.51,61.52-2.1,4.21-4.27,8.24-6.5,12.11-17.65-4.72-36.4-12.16-55.7-22.21-5.61-2.92-11.23-6.06-16.84-9.37,15.3-9.48,30.68-20.44,45.85-32.77ZM314.21,372.9c10.34-8.75,20.57-18.13,30.57-28.13s19.37-20.21,28.12-30.55c-2.06,17.24-5.03,33.92-8.88,49.8-15.88,3.84-32.57,6.82-49.82,8.88ZM378.96,306.93c12.36-15.19,23.32-30.6,32.81-45.92,11.77,19.96,21.1,39.96,27.58,59.42,1.49,4.47,2.81,8.86,3.97,13.17-3.86,2.23-7.9,4.4-12.12,6.5-18.34,9.17-39.09,16.72-61.52,22.51,4.12-17.55,7.26-36.19,9.27-55.67ZM379.83,297.49c1.12-13.5,1.72-27.36,1.72-41.49s-.59-27.99-1.72-41.49c10.74,13.65,20.43,27.55,28.94,41.49-8.51,13.94-18.2,27.84-28.94,41.49ZM378.96,205.07c-2.01-19.48-5.15-38.13-9.27-55.67,22.43,5.79,43.18,13.34,61.52,22.51,4.21,2.11,8.25,4.27,12.12,6.5-1.16,4.31-2.48,8.7-3.97,13.17-6.49,19.46-15.82,39.46-27.58,59.42-9.49-15.32-20.46-30.73-32.81-45.92ZM210.51,28.63c14.51-12.27,29.81-18.49,45.49-18.49s30.98,6.22,45.49,18.49c10.59,8.96,20.42,20.84,29.34,35.4-23.64,6.49-49.06,17.69-74.83,33.13-25.77-15.45-51.19-26.64-74.83-33.14,8.92-14.57,18.74-26.44,29.34-35.4ZM63.06,127.39c1.58-18.94,8-34.16,19.09-45.24,12.92-12.92,31.29-19.47,54.6-19.47h0c11.33,0,23.55,1.6,36.39,4.67-12.12,21.3-22.16,47.2-29.46,76.34-29.14,7.3-55.04,17.35-76.35,29.47-3.99-16.6-5.44-31.94-4.29-45.76ZM28.63,301.49c-12.27-14.51-18.49-29.81-18.49-45.49s6.22-30.98,18.49-45.49c8.96-10.59,20.83-20.41,35.39-29.33,6.5,23.64,17.71,49.06,33.15,74.82-15.44,25.76-26.65,51.18-33.15,74.82-14.56-8.92-26.43-18.74-35.39-29.33ZM136.75,449.32c-23.31,0-41.68-6.55-54.6-19.47-11.09-11.09-17.51-26.31-19.09-45.24-1.15-13.82.29-29.16,4.29-45.76,21.31,12.12,47.21,22.17,76.35,29.47,7.3,29.13,17.34,55.03,29.46,76.33-12.85,3.08-25.07,4.68-36.4,4.68ZM301.49,483.37c-14.51,12.27-29.81,18.5-45.49,18.5s-30.98-6.22-45.49-18.5c-10.59-8.96-20.42-20.83-29.34-35.4,23.64-6.49,49.06-17.69,74.83-33.14,25.77,15.45,51.19,26.64,74.83,33.14-8.92,14.57-18.74,26.44-29.34,35.4ZM448.94,384.61c-1.58,18.94-8,34.16-19.09,45.24-12.92,12.92-31.29,19.47-54.6,19.47-11.33,0-23.55-1.6-36.4-4.68,12.12-21.3,22.16-47.2,29.46-76.33,29.14-7.3,55.04-17.35,76.35-29.47,3.99,16.6,5.44,31.94,4.29,45.76ZM447.98,330.82c-6.5-23.64-17.71-49.06-33.15-74.82,15.44-25.77,26.65-51.18,33.15-74.82,14.56,8.92,26.43,18.74,35.39,29.33,12.27,14.51,18.49,29.81,18.49,45.49s-6.22,30.98-18.49,45.49c-8.96,10.59-20.83,20.41-35.39,29.33Z"/>
    <path class="cls-3" d="M256,512c-30.17,0-59.34-20.23-82.42-57.06-13.04,3-25.42,4.51-36.83,4.51-25.73,0-47.09-7.76-61.76-22.44-21.33-21.33-27.65-56.25-17.94-98.61C20.22,315.33,0,286.16,0,256s20.22-59.33,57.04-82.41c-9.71-42.36-3.39-77.28,17.94-98.61,14.68-14.68,36.03-22.43,61.76-22.44h.01c11.42,0,23.79,1.52,36.83,4.51C196.66,20.23,225.83,0,256,0s59.34,20.23,82.42,57.06c13.04-3,25.42-4.51,36.84-4.51,25.73,0,47.09,7.76,61.76,22.44,21.33,21.33,27.65,56.25,17.94,98.61,36.82,23.08,57.04,52.25,57.04,82.41s-20.22,59.33-57.04,82.41c9.71,42.35,3.39,77.28-17.94,98.61-14.68,14.68-36.04,22.44-61.76,22.44-11.42,0-23.8-1.52-36.84-4.51-23.08,36.83-52.25,57.06-82.42,57.06ZM188.82,450.86c7.7,11.66,16.05,21.32,24.86,28.77,13.6,11.5,27.84,17.34,42.32,17.34s28.73-5.83,42.32-17.34c8.81-7.45,17.15-17.11,24.86-28.77-21.66-6.61-44.22-16.78-67.18-30.32-22.96,13.54-45.52,23.71-67.18,30.32ZM346.3,441.27c10.25,2.09,19.97,3.14,28.95,3.14,21.96,0,39.16-6.07,51.13-18.03,10.24-10.24,16.19-24.44,17.67-42.18h0c.96-11.5.03-24.22-2.77-37.91-19.97,10.63-43.11,19.38-68.94,26.05-6.67,25.83-15.41,48.97-26.04,68.93ZM70.71,346.29c-2.79,13.68-3.72,26.41-2.76,37.91,1.48,17.75,7.43,31.94,17.67,42.18,11.96,11.96,29.17,18.03,51.13,18.03,8.99,0,18.7-1.06,28.95-3.14-10.63-19.96-19.37-43.11-26.04-68.93-25.83-6.67-48.98-15.42-68.94-26.05ZM270.53,411.54c3.3,1.86,6.52,3.6,9.63,5.22,17.55,9.13,34.7,16.12,51.06,20.81,1.53-2.77,3.04-5.63,4.5-8.55,7.89-15.77,14.62-33.49,20.05-52.76-15.13,3.24-30.86,5.73-46.89,7.43-12.53,10.13-25.39,19.47-38.33,27.85ZM156.24,376.26c5.43,19.27,12.16,36.99,20.05,52.76,1.46,2.92,2.96,5.78,4.5,8.55,16.35-4.69,33.51-11.68,51.06-20.81,3.11-1.62,6.33-3.36,9.63-5.22-12.94-8.38-25.8-17.72-38.33-27.85-16.03-1.7-31.76-4.2-46.89-7.43ZM230.6,385.82c8.41,6.13,16.91,11.86,25.4,17.14,8.48-5.27,16.98-11,25.4-17.14-16.91.84-33.89.84-50.79,0ZM209.19,369.2c30.63,2.93,63,2.93,93.63,0,12.03-9.91,23.73-20.53,34.8-31.6,11.16-11.16,21.78-22.83,31.59-34.72,1.47-15.34,2.22-31.1,2.22-46.89s-.75-31.55-2.22-46.89c-9.81-11.89-20.43-23.56-31.59-34.72-11.06-11.06-22.76-21.69-34.79-31.6-30.62-2.93-63-2.93-93.63,0-12.03,9.91-23.73,20.53-34.8,31.6-11.16,11.16-21.78,22.84-31.59,34.72-1.47,15.34-2.22,31.1-2.22,46.89s.75,31.55,2.22,46.89c9.81,11.89,20.43,23.56,31.59,34.72,11.06,11.06,22.76,21.69,34.79,31.6ZM152.05,359.95c9.77,2.28,19.87,4.24,30.19,5.86-6.32-5.71-12.5-11.59-18.48-17.57-5.99-5.99-11.87-12.17-17.56-18.47,1.62,10.32,3.57,20.41,5.86,30.18ZM365.81,329.77c-5.7,6.3-11.57,12.48-17.56,18.47-5.98,5.98-12.16,11.85-18.48,17.57,10.32-1.61,20.42-3.57,30.19-5.86,2.28-9.76,4.24-19.86,5.86-30.18ZM383.69,308.89c-1.7,16.02-4.19,31.75-7.43,46.86,19.27-5.43,36.99-12.16,52.76-20.04,2.92-1.46,5.79-2.97,8.56-4.5-.88-3.05-1.84-6.14-2.87-9.23-5.58-16.73-13.35-34.02-23.14-51.48-8.4,12.98-17.76,25.86-27.88,38.39ZM74.43,331.21c2.77,1.53,5.64,3.04,8.56,4.5,15.77,7.89,33.49,14.62,52.76,20.05-3.24-15.12-5.73-30.84-7.43-46.86-10.13-12.53-19.48-25.41-27.88-38.39-9.79,17.47-17.56,34.76-23.13,51.48-1.03,3.1-1.99,6.19-2.87,9.23ZM32.37,298.32c7.45,8.81,17.11,17.15,28.76,24.85,6.6-21.64,16.78-44.19,30.33-67.17-13.55-22.98-23.73-45.54-30.33-67.17-11.65,7.7-21.31,16.04-28.76,24.85-11.5,13.6-17.33,27.84-17.33,42.32s5.83,28.73,17.33,42.32ZM420.54,256c13.55,22.98,23.73,45.54,30.33,67.17,11.65-7.7,21.31-16.04,28.76-24.85,11.5-13.6,17.34-27.84,17.34-42.32s-5.83-28.72-17.34-42.32c-7.45-8.81-17.11-17.15-28.76-24.85-6.6,21.64-16.78,44.19-30.33,67.17ZM385.81,230.52c.43,8.48.64,17,.64,25.48s-.21,17-.64,25.48c6.15-8.44,11.91-16.96,17.2-25.48-5.29-8.52-11.05-17.04-17.2-25.48ZM108.99,256c5.29,8.52,11.05,17.04,17.2,25.48-.43-8.48-.64-17-.64-25.48s.21-17,.64-25.48c-6.15,8.44-11.91,16.96-17.2,25.48ZM383.69,203.11c10.13,12.53,19.48,25.41,27.88,38.39,9.79-17.47,17.56-34.75,23.14-51.48,1.03-3.09,1.99-6.18,2.87-9.23-2.77-1.53-5.64-3.04-8.56-4.5-15.77-7.89-33.49-14.61-52.76-20.05,3.24,15.12,5.73,30.84,7.43,46.86ZM74.43,180.79c.88,3.04,1.84,6.13,2.87,9.23,5.58,16.73,13.35,34.01,23.13,51.48,8.4-12.98,17.76-25.86,27.88-38.39,1.7-16.02,4.19-31.74,7.43-46.86-19.27,5.43-36.99,12.16-52.76,20.05-2.92,1.46-5.78,2.97-8.56,4.5ZM152.05,152.05c-2.28,9.76-4.24,19.86-5.86,30.18,5.69-6.3,11.57-12.47,17.56-18.47,5.98-5.98,12.16-11.85,18.48-17.57-10.32,1.62-20.42,3.57-30.19,5.86ZM329.76,146.19c6.32,5.71,12.5,11.59,18.48,17.57,5.99,5.99,11.87,12.17,17.56,18.47-1.62-10.32-3.57-20.41-5.86-30.18-9.77-2.28-19.87-4.24-30.19-5.86ZM372.34,139.66c25.83,6.67,48.98,15.42,68.94,26.05,2.79-13.69,3.72-26.41,2.77-37.91-1.48-17.75-7.43-31.94-17.67-42.18-11.97-11.97-29.17-18.03-51.13-18.03h0c-8.99,0-18.7,1.06-28.95,3.14,10.63,19.96,19.37,43.1,26.04,68.93ZM67.95,127.8c-.96,11.5-.03,24.22,2.76,37.91,19.97-10.63,43.11-19.38,68.94-26.05,6.67-25.82,15.41-48.97,26.04-68.93-10.25-2.09-19.96-3.14-28.94-3.14-21.97,0-39.18,6.07-51.14,18.03-10.24,10.24-16.19,24.44-17.67,42.18h0ZM180.79,74.43c-1.53,2.77-3.04,5.63-4.5,8.55-7.89,15.77-14.61,33.49-20.05,52.76,15.13-3.24,30.86-5.73,46.89-7.43,12.53-10.12,25.39-19.47,38.33-27.85-3.3-1.86-6.51-3.6-9.62-5.22-17.55-9.13-34.71-16.13-51.06-20.81ZM308.86,128.31c16.03,1.7,31.76,4.2,46.89,7.43-5.43-19.27-12.16-36.99-20.05-52.76-1.46-2.92-2.96-5.78-4.49-8.55-16.35,4.69-33.51,11.68-51.06,20.81-3.1,1.62-6.32,3.36-9.62,5.22,12.94,8.38,25.8,17.72,38.33,27.85ZM256,125.55c8.45,0,16.94.21,25.4.64-8.41-6.13-16.91-11.86-25.4-17.14-8.49,5.27-16.98,11.01-25.4,17.14,8.45-.42,16.95-.64,25.4-.64ZM188.82,61.14c21.66,6.6,44.22,16.78,67.18,30.32,22.96-13.54,45.52-23.71,67.18-30.32-7.7-11.66-16.05-21.32-24.86-28.77-13.6-11.5-27.84-17.33-42.32-17.33s-28.73,5.83-42.32,17.33c-8.81,7.45-17.15,17.11-24.86,28.77Z"/>
  </g>
  <g>
    <g>
      <circle class="cls-2" cx="334.82" cy="446.26" r="12.5"/>
      <polygon class="cls-1" points="337.25 443.82 343.82 446.26 337.25 448.69 334.82 455.26 332.39 448.69 325.82 446.26 332.39 443.82 334.82 437.26 337.25 443.82"/>
    </g>
    <g>
      <circle class="cls-2" cx="446.08" cy="334.73" r="12.5"/>
      <polygon class="cls-1" points="448.51 332.3 455.08 334.73 448.51 337.16 446.08 343.73 443.65 337.16 437.08 334.73 443.65 332.3 446.08 325.73 448.51 332.3"/>
    </g>
    <g>
      <circle class="cls-2" cx="177.18" cy="65.74" r="12.5"/>
      <polygon class="cls-1" points="179.61 63.31 186.18 65.74 179.61 68.17 177.18 74.74 174.75 68.17 168.18 65.74 174.75 63.31 177.18 56.74 179.61 63.31"/>
    </g>
    <g>
      <circle class="cls-2" cx="334.82" cy="65.75" r="12.5"/>
      <polygon class="cls-1" points="337.25 63.31 343.82 65.75 337.25 68.18 334.82 74.75 332.39 68.18 325.82 65.75 332.39 63.31 334.82 56.75 337.25 63.31"/>
    </g>
    <g>
      <circle class="cls-2" cx="65.92" cy="334.73" r="12.5"/>
      <polygon class="cls-1" points="68.35 332.3 74.92 334.73 68.35 337.16 65.92 343.73 63.49 337.16 56.92 334.73 63.49 332.3 65.92 325.73 68.35 332.3"/>
    </g>
    <g>
      <circle class="cls-2" cx="65.92" cy="177.27" r="12.5"/>
      <polygon class="cls-1" points="68.35 174.84 74.92 177.27 68.35 179.7 65.92 186.27 63.49 179.7 56.92 177.27 63.49 174.84 65.92 168.27 68.35 174.84"/>
    </g>
    <g>
      <circle class="cls-2" cx="446.08" cy="177.27" r="12.5"/>
      <polygon class="cls-1" points="448.51 174.84 455.08 177.27 448.51 179.7 446.08 186.27 443.65 179.7 437.08 177.27 443.65 174.84 446.08 168.27 448.51 174.84"/>
    </g>
    <g>
      <circle class="cls-2" cx="177.18" cy="446.26" r="12.5"/>
      <polygon class="cls-1" points="179.61 443.82 186.18 446.26 179.61 448.69 177.18 455.26 174.75 448.69 168.18 446.26 174.75 443.82 177.18 437.26 179.61 443.82"/>
    </g>
  </g>
</svg>